<?xml version="1.0" standalone="no"?>
<!DOCTYPE svg PUBLIC "-//W3C//DTD SVG 20010904//EN"
 "http://www.w3.org/TR/2001/REC-SVG-20010904/DTD/svg10.dtd">
<svg version="1.0" xmlns="http://www.w3.org/2000/svg"
 width="260.000000pt" height="260.000000pt" viewBox="0 0 260.000000 260.000000"
 preserveAspectRatio="xMidYMid meet">
<metadata>
Created by potrace 1.14, written by Peter Selinger 2001-2017
</metadata>
<g transform="translate(0.000000,260.000000) scale(0.100000,-0.100000)"
fill="#000000" stroke="none">
<path d="M125 2581 c-16 -10 -43 -30 -59 -45 -16 -15 -37 -28 -47 -29 -14 -1
-19 -9 -19 -30 l0 -28 22 21 c12 11 23 18 25 17 7 -7 -23 -57 -34 -57 -10 0
-13 -250 -13 -1215 l0 -1215 95 0 c102 0 118 8 96 49 -7 12 -7 22 -2 26 12 7
23 -10 26 -39 1 -11 3 -24 4 -28 0 -5 46 -8 100 -8 91 0 100 2 106 20 4 11 10
18 15 15 5 -3 11 4 15 15 4 11 10 18 15 15 14 -8 22 28 8 38 -9 6 -8 7 4 3 12
-3 24 6 38 30 12 18 26 34 32 34 6 0 5 7 -3 17 -8 9 -9 14 -4 11 6 -4 18 7 28
23 10 18 12 27 4 23 -9 -5 -9 -4 0 7 7 7 13 28 13 46 0 45 27 44 60 -2 14 -19
30 -33 37 -30 7 2 15 -5 18 -16 4 -10 11 -17 16 -14 5 4 9 1 9 -5 0 -6 4 -9 9
-5 5 3 12 -4 16 -15 3 -11 11 -20 16 -20 5 0 19 -9 31 -20 12 -11 28 -20 35
-20 8 0 11 -5 8 -10 -3 -6 1 -10 10 -10 9 0 29 -12 44 -28 21 -20 27 -36 26
-64 l-1 -38 838 0 838 0 -1 823 c0 764 -1 819 -16 775 -9 -27 -20 -48 -24 -48
-5 0 -9 -5 -9 -11 0 -6 -9 -23 -20 -39 -11 -15 -17 -30 -13 -34 3 -3 1 -6 -5
-6 -7 0 -12 13 -12 29 0 29 -51 97 -64 84 -3 -3 -6 -2 -6 4 0 6 -13 16 -30 23
-17 7 -30 17 -30 22 0 5 -4 6 -10 3 -9 -5 -8 5 3 75 2 9 6 20 9 25 17 28 27
131 18 180 -4 21 -1 35 11 47 10 9 19 13 21 8 2 -5 26 -11 53 -13 28 -2 60 -9
70 -15 11 -6 17 -12 13 -12 -9 0 29 -40 37 -40 3 0 5 11 5 25 0 14 -3 25 -7
25 -7 0 -25 14 -79 59 -7 5 -15 7 -18 4 -3 -4 -6 -2 -6 4 0 11 -30 23 -67 27
-13 2 -23 -1 -23 -6 0 -5 -4 -7 -9 -4 -5 4 -12 0 -14 -6 -3 -8 -6 -6 -6 5 -1
9 -6 17 -11 17 -6 0 -9 3 -8 8 3 12 -25 82 -34 82 -4 0 -8 7 -8 15 0 8 -5 15
-12 15 -6 0 -9 3 -5 6 3 3 -5 17 -19 31 -13 13 -24 28 -24 33 0 13 -72 85 -93
93 -10 4 -15 11 -12 17 3 5 0 10 -7 10 -7 0 -28 14 -45 31 -18 16 -33 27 -33
24 0 -4 -7 1 -16 9 -8 9 -22 16 -30 16 -8 0 -14 5 -14 11 0 5 -4 7 -10 4 -5
-3 -10 -1 -10 4 0 6 -7 11 -15 11 -8 0 -15 3 -15 8 0 4 -20 18 -45 32 -25 14
-45 28 -45 32 0 5 -7 8 -15 8 -8 0 -15 5 -15 11 0 5 -4 7 -10 4 -5 -3 -10 -3
-10 2 0 9 -48 33 -67 33 -7 0 -13 5 -13 10 0 7 -269 10 -787 10 -751 0 -789
-1 -818 -19z m2015 -388 c15 -16 44 -43 64 -61 20 -19 36 -38 36 -43 0 -6 6
-7 13 -3 6 4 9 4 6 0 -4 -4 10 -37 30 -74 20 -37 38 -85 40 -107 1 -22 6 -42
9 -45 10 -8 8 -93 -2 -109 -7 -10 -6 -12 3 -6 10 6 11 3 3 -11 -10 -20 -12
-26 -12 -46 0 -19 -23 8 -25 29 -2 17 -5 25 -21 68 -4 11 -6 26 -5 33 1 6 -3
12 -10 12 -6 0 -9 7 -5 15 3 8 1 15 -5 15 -5 0 -9 6 -7 13 1 6 -5 26 -14 42
-9 17 -18 39 -20 50 -1 11 -5 22 -8 25 -3 3 -25 44 -49 93 -24 48 -47 87 -51
87 -11 0 -21 30 -14 41 8 14 15 11 44 -18z m54 -1699 c12 -31 6 -50 -14 -50
-16 0 -19 6 -16 26 2 14 5 28 5 33 2 13 19 7 25 -9z m-299 -33 c19 -16 31 -32
28 -35 -3 -3 3 -9 13 -13 10 -4 25 -13 32 -20 15 -15 33 -17 30 -4 -2 5 1 8 6
7 4 0 20 22 34 49 14 28 27 44 29 37 3 -6 8 -10 12 -7 5 2 7 -24 7 -59 -1 -53
-6 -69 -31 -102 -54 -72 -127 -134 -157 -134 -15 0 -28 -4 -28 -9 0 -5 -9 -7
-20 -4 -13 3 -20 0 -20 -8 0 -11 -2 -11 -8 -2 -6 10 -17 8 -46 -8 -34 -18 -41
-19 -53 -6 -8 8 -16 26 -16 41 -1 14 -5 26 -9 26 -5 0 -8 7 -8 15 0 8 -4 15
-9 15 -5 0 -11 9 -14 21 -3 12 -10 18 -16 14 -17 -10 -43 22 -39 47 2 14 16
29 35 39 18 9 30 19 26 23 -3 3 -1 6 6 6 7 0 28 16 47 35 18 19 38 35 44 35 5
0 10 4 10 9 0 5 8 12 18 14 41 11 66 5 97 -22z m-1648 -96 c0 -8 -4 -12 -9 -9
-5 3 -6 10 -3 15 9 13 12 11 12 -6z"/>
</g>
</svg>
